<svg xmlns="http://www.w3.org/2000/svg" width="1355.975" height="222.8" viewBox="0 0 1355.975 222.8">
  <g id="Group_8" data-name="Group 8" transform="translate(-172.293 -429)">
    <path id="Path_24" data-name="Path 24" d="M44,0A26.376,26.376,0,0,1,28.4-4.8,31.866,31.866,0,0,1,17.8-17.9,45.433,45.433,0,0,1,14-37V-146.2a9.746,9.746,0,0,1,2.8-7.2,9.746,9.746,0,0,1,7.2-2.8,9.746,9.746,0,0,1,7.2,2.8,9.746,9.746,0,0,1,2.8,7.2V-37q0,7.4,2.8,12.2T44-20h5a8.306,8.306,0,0,1,6.5,2.8A10.4,10.4,0,0,1,58-10a8.578,8.578,0,0,1-3.8,7.2A16.1,16.1,0,0,1,44.4,0Zm79.4.8Q106.8.8,93.9-6.3A51.915,51.915,0,0,1,73.7-25.9q-7.3-12.5-7.3-28.7,0-16.4,6.9-28.9a50.451,50.451,0,0,1,19.1-19.6q12.2-7.1,28-7.1,15.6,0,26.8,6.9a44.967,44.967,0,0,1,17.1,19q5.9,12.1,5.9,27.9a8.371,8.371,0,0,1-2.6,6.3,9.135,9.135,0,0,1-6.6,2.5H80.4v-16h80L152.2-58a42.8,42.8,0,0,0-4-17.9,30.367,30.367,0,0,0-10.8-12.5q-7-4.6-17-4.6-11.4,0-19.5,5A32.211,32.211,0,0,0,88.6-74.3a44.747,44.747,0,0,0-4.2,19.7,38.273,38.273,0,0,0,5,19.6,36.533,36.533,0,0,0,13.8,13.6,40.17,40.17,0,0,0,20.2,5,37.941,37.941,0,0,0,12.7-2.3A39.453,39.453,0,0,0,146.6-24a11.339,11.339,0,0,1,6.5-2.3,8.741,8.741,0,0,1,6.1,2.1,9.476,9.476,0,0,1,3.6,6.6q.2,3.6-3.2,6.2a55.3,55.3,0,0,1-16.9,8.8A60.468,60.468,0,0,1,123.4.8ZM237.8.8a48.159,48.159,0,0,1-26.2-7.3,51.879,51.879,0,0,1-18.3-19.8,58.953,58.953,0,0,1-6.7-28.3A55.609,55.609,0,0,1,193.9-83a54,54,0,0,1,19.8-19.9,54.682,54.682,0,0,1,28.1-7.3,54.147,54.147,0,0,1,28,7.3A54.236,54.236,0,0,1,289.5-83a55.609,55.609,0,0,1,7.3,28.4H289a58.953,58.953,0,0,1-6.7,28.3A51.878,51.878,0,0,1,264-6.5,48.159,48.159,0,0,1,237.8.8Zm4-18A34.139,34.139,0,0,0,260-22.1a34.838,34.838,0,0,0,12.6-13.4,39.476,39.476,0,0,0,4.6-19.1,39.9,39.9,0,0,0-4.6-19.3A34.838,34.838,0,0,0,260-87.3a34.139,34.139,0,0,0-18.2-4.9,34.286,34.286,0,0,0-18.1,4.9,35.337,35.337,0,0,0-12.8,13.4,39.212,39.212,0,0,0-4.7,19.3,38.8,38.8,0,0,0,4.7,19.1,35.337,35.337,0,0,0,12.8,13.4A34.286,34.286,0,0,0,241.8-17.2ZM286.6.2a9.9,9.9,0,0,1-7.3-2.9,9.9,9.9,0,0,1-2.9-7.3V-40.6l3.8-21.2,16.6,7.2V-10a9.9,9.9,0,0,1-2.9,7.3A9.9,9.9,0,0,1,286.6.2Zm90.2.6a54.682,54.682,0,0,1-28.1-7.3,54,54,0,0,1-19.8-19.9,55.609,55.609,0,0,1-7.3-28.4,58.953,58.953,0,0,1,6.7-28.3,51.878,51.878,0,0,1,18.3-19.8,48.159,48.159,0,0,1,26.2-7.3,48.868,48.868,0,0,1,21.8,4.9A49.118,49.118,0,0,1,411.4-92v-54a9.816,9.816,0,0,1,2.9-7.4,10.087,10.087,0,0,1,7.3-2.8,10,10,0,0,1,7.4,2.8,10,10,0,0,1,2.8,7.4v91.2a55.609,55.609,0,0,1-7.3,28.4A54.236,54.236,0,0,1,404.8-6.5,54.147,54.147,0,0,1,376.8.8Zm0-18A34.139,34.139,0,0,0,395-22.1a34.655,34.655,0,0,0,12.6-13.5,40.057,40.057,0,0,0,4.6-19.2A39.318,39.318,0,0,0,407.6-74,35.032,35.032,0,0,0,395-87.3a34.139,34.139,0,0,0-18.2-4.9,34.286,34.286,0,0,0-18.1,4.9A35.543,35.543,0,0,0,345.9-74a38.647,38.647,0,0,0-4.7,19.2,39.371,39.371,0,0,0,4.7,19.2,35.143,35.143,0,0,0,12.8,13.5A34.286,34.286,0,0,0,376.8-17.2ZM507.6.8a75.678,75.678,0,0,1-25.9-4.3q-11.9-4.3-18.5-10.9a8.711,8.711,0,0,1-2.5-7.3,9.622,9.622,0,0,1,3.9-6.7q4-3.2,7.9-2.7a10.823,10.823,0,0,1,6.7,3.5q3.4,3.8,10.9,7.1a41.03,41.03,0,0,0,16.7,3.3q11.6,0,17.7-3.8t6.3-9.8q.2-6-5.7-10.4t-21.5-7.2q-20.2-4-29.3-12T465.2-80q0-10.2,6-16.9a36.406,36.406,0,0,1,15.4-10,58.74,58.74,0,0,1,19.6-3.3,61.047,61.047,0,0,1,23.4,4.2,39.9,39.9,0,0,1,16.2,11.6,9.226,9.226,0,0,1,2.6,6.7,7.747,7.747,0,0,1-3.4,5.9,9.808,9.808,0,0,1-7.6,1.4A14.338,14.338,0,0,1,530-84a27.247,27.247,0,0,0-10.8-6.6,45.274,45.274,0,0,0-13.4-1.8,33.536,33.536,0,0,0-14.9,3q-6.1,3-6.1,8.8a11.6,11.6,0,0,0,1.9,6.5q1.9,2.9,7.5,5.2a96.29,96.29,0,0,0,16.4,4.5q15,3,23.7,7.6t12.5,10.7A26.109,26.109,0,0,1,550.6-32a29.4,29.4,0,0,1-4.9,16.6Q540.8-8,531.3-3.6T507.6.8Zm79,46a9.916,9.916,0,0,1-10.2-10.2V-54.6A57.73,57.73,0,0,1,583.8-83a53.472,53.472,0,0,1,19.6-19.9,54.147,54.147,0,0,1,28-7.3,54.532,54.532,0,0,1,28.2,7.3A54.237,54.237,0,0,1,679.3-83a55.609,55.609,0,0,1,7.3,28.4,58.953,58.953,0,0,1-6.7,28.3A51.879,51.879,0,0,1,661.6-6.5,48.159,48.159,0,0,1,635.4.8a48.239,48.239,0,0,1-21.7-4.9,51.46,51.46,0,0,1-16.9-13.3v54a10.087,10.087,0,0,1-2.8,7.3A9.816,9.816,0,0,1,586.6,46.8Zm44.8-64a34.139,34.139,0,0,0,18.2-4.9,35.59,35.59,0,0,0,12.7-13.4A38.8,38.8,0,0,0,667-54.6a39.212,39.212,0,0,0-4.7-19.3,35.59,35.59,0,0,0-12.7-13.4,34.139,34.139,0,0,0-18.2-4.9,34.286,34.286,0,0,0-18.1,4.9,34.6,34.6,0,0,0-12.7,13.4A39.9,39.9,0,0,0,596-54.6a39.476,39.476,0,0,0,4.6,19.1,34.6,34.6,0,0,0,12.7,13.4A34.286,34.286,0,0,0,631.4-17.2ZM762.6.8a48.159,48.159,0,0,1-26.2-7.3,51.879,51.879,0,0,1-18.3-19.8,58.953,58.953,0,0,1-6.7-28.3A55.609,55.609,0,0,1,718.7-83a54,54,0,0,1,19.8-19.9,54.682,54.682,0,0,1,28.1-7.3,54.147,54.147,0,0,1,28,7.3A54.236,54.236,0,0,1,814.3-83a55.609,55.609,0,0,1,7.3,28.4h-7.8a58.953,58.953,0,0,1-6.7,28.3A51.878,51.878,0,0,1,788.8-6.5,48.159,48.159,0,0,1,762.6.8Zm4-18a34.139,34.139,0,0,0,18.2-4.9,34.838,34.838,0,0,0,12.6-13.4A39.476,39.476,0,0,0,802-54.6a39.9,39.9,0,0,0-4.6-19.3,34.838,34.838,0,0,0-12.6-13.4,34.139,34.139,0,0,0-18.2-4.9,34.286,34.286,0,0,0-18.1,4.9,35.338,35.338,0,0,0-12.8,13.4A39.212,39.212,0,0,0,731-54.6a38.8,38.8,0,0,0,4.7,19.1,35.337,35.337,0,0,0,12.8,13.4A34.286,34.286,0,0,0,766.6-17.2ZM811.4.2a9.9,9.9,0,0,1-7.3-2.9,9.9,9.9,0,0,1-2.9-7.3V-40.6L805-61.8l16.6,7.2V-10a9.9,9.9,0,0,1-2.9,7.3A9.9,9.9,0,0,1,811.4.2Zm50.4-68.6a39.911,39.911,0,0,1,5.9-21.5A43.244,43.244,0,0,1,883.6-105a44.259,44.259,0,0,1,22-5.6q12,0,17.9,3.9t4.5,9.3a7.679,7.679,0,0,1-2.3,4.3,7.942,7.942,0,0,1-3.9,1.9,11.844,11.844,0,0,1-4.8-.2q-12.8-2.6-23-.4t-16.1,8.2A20.784,20.784,0,0,0,872-68.4ZM862,0q-4.8,0-7.4-2.5T852-10V-99.4q0-4.8,2.6-7.4t7.4-2.6q5,0,7.5,2.5t2.5,7.5V-10q0,4.8-2.5,7.4T862,0ZM968.4-40,956-53.6l61.4-54.8a8.841,8.841,0,0,1,6.7-2.6,8.708,8.708,0,0,1,6.3,3.2,8.721,8.721,0,0,1,2.6,6.6,9.29,9.29,0,0,1-3.2,6.4ZM959,0a9.6,9.6,0,0,1-7.1-2.7,9.6,9.6,0,0,1-2.7-7.1V-146.4a9.6,9.6,0,0,1,2.7-7.1,9.6,9.6,0,0,1,7.1-2.7,9.6,9.6,0,0,1,7.1,2.7,9.6,9.6,0,0,1,2.7,7.1V-9.8a9.6,9.6,0,0,1-2.7,7.1A9.6,9.6,0,0,1,959,0Zm71.4-1a9.733,9.733,0,0,1-7.1,2.3,8.991,8.991,0,0,1-6.5-3.5L976.2-52.4l14-13.2,41.6,51.2a9.447,9.447,0,0,1,2.3,6.9A9.281,9.281,0,0,1,1030.4-1Zm42.4-67.4a39.912,39.912,0,0,1,5.9-21.5,43.246,43.246,0,0,1,15.9-15.1,44.258,44.258,0,0,1,22-5.6q12,0,17.9,3.9t4.5,9.3a7.679,7.679,0,0,1-2.3,4.3,7.941,7.941,0,0,1-3.9,1.9,11.845,11.845,0,0,1-4.8-.2q-12.8-2.6-23-.4t-16.1,8.2a20.784,20.784,0,0,0-5.9,15.2ZM1073,0q-4.8,0-7.4-2.5T1063-10V-99.4q0-4.8,2.6-7.4t7.4-2.6q5,0,7.5,2.5t2.5,7.5V-10q0,4.8-2.5,7.4T1073,0Z" transform="translate(389 605)" fill="#00ff6f"/>
    <g id="magnet-svgrepo-com_3_" data-name="magnet-svgrepo-com(3)" transform="translate(373.81 616.005) rotate(180)">
      <path id="Path_18" data-name="Path 18" d="M189.126,166.6H163.82a12.4,12.4,0,0,1-12.389-12.389V74.249c0-13.126-10.477-23.965-23.355-24.161a23.756,23.756,0,0,0-24.094,23.722V117.4a5.272,5.272,0,1,1-10.544,0V73.809a34.3,34.3,0,0,1,34.8-34.265c18.6.284,33.738,15.853,33.738,34.7v79.959a1.847,1.847,0,0,0,1.845,1.845h25.306a1.847,1.847,0,0,0,1.845-1.845V132.859a5.272,5.272,0,0,1,10.544,0v21.348A12.4,12.4,0,0,1,189.126,166.6Zm-97.533,0H66.286A12.4,12.4,0,0,1,53.9,154.207v-80.4a73.809,73.809,0,0,1,147.618,0v35.054a5.272,5.272,0,1,1-10.544,0V73.809a63.265,63.265,0,0,0-126.53,0v80.4a1.847,1.847,0,0,0,1.845,1.845H91.593a1.847,1.847,0,0,0,1.845-1.845V127.941a5.272,5.272,0,1,1,10.544,0v26.267A12.4,12.4,0,0,1,91.593,166.6Z" transform="translate(0)" fill="#507c5c"/>
      <path id="Path_19" data-name="Path 19" d="M374.936,337.8v30.842a7.117,7.117,0,0,1-7.117,7.117H342.513a7.117,7.117,0,0,1-7.117-7.117V337.8Z" transform="translate(-178.693 -214.431)" fill="#00ff6f"/>
      <path id="Path_20" data-name="Path 20" d="M358.656,371.864H333.349a12.4,12.4,0,0,1-12.389-12.389V328.633a5.272,5.272,0,0,1,5.272-5.272h39.541a5.272,5.272,0,0,1,5.272,5.272v30.841A12.4,12.4,0,0,1,358.656,371.864ZM331.5,333.905v25.569a1.847,1.847,0,0,0,1.845,1.845h25.306a1.847,1.847,0,0,0,1.845-1.845V333.905Z" transform="translate(-169.529 -205.267)" fill="#507c5c"/>
      <path id="Path_21" data-name="Path 21" d="M107.873,337.8v30.842a7.117,7.117,0,0,1-7.117,7.117H75.45a7.117,7.117,0,0,1-7.117-7.117V337.8Z" transform="translate(-9.164 -214.431)" fill="#00ff6f"/>
      <g id="Group_7" data-name="Group 7" transform="translate(53.897 118.094)">
        <path id="Path_22" data-name="Path 22" d="M91.593,371.864H66.286A12.4,12.4,0,0,1,53.9,359.474V328.633a5.272,5.272,0,0,1,5.272-5.272H98.71a5.272,5.272,0,0,1,5.272,5.272v30.841A12.4,12.4,0,0,1,91.593,371.864ZM64.441,333.905v25.569a1.847,1.847,0,0,0,1.845,1.845H91.593a1.847,1.847,0,0,0,1.845-1.845V333.905Z" transform="translate(-53.897 -323.361)" fill="#507c5c"/>
        <path id="Path_23" data-name="Path 23" d="M224.5,422.8a5.271,5.271,0,0,1-3.509-6.578l10.534-15.678-11.61,2.779a5.272,5.272,0,0,1-5.959-7.454l10.543-21.44a5.272,5.272,0,1,1,9.462,4.653l-5.594,11.376,9.653-2.311a5.276,5.276,0,0,1,5.066,1.514c1.3,1.376,2.307,3.633,1.757,5.441l-14.808,25.075C229,422.15,225.008,422.957,224.5,422.8Z" transform="translate(-155.156 -353.909)" fill="#00ff6f"/>
      </g>
    </g>
  </g>
</svg>
